<svg version="1.2" baseProfile="tiny-ps" xmlns="http://www.w3.org/2000/svg" viewBox="0 0 1500 1500" width="750" height="750">
	<title>114036-OOLOG1-321-ai</title>
	<style>
		tspan { white-space:pre }
		.shp0 { fill: #fafafa } 
		.shp1 { fill: #e5e5e7 } 
		.shp2 { fill: #cacacc } 
		.shp3 { fill: #ffffff } 
		.shp4 { fill: #c8e67f } 
		.shp5 { fill: #ffd25c } 
		.shp6 { fill: #84bfff } 
		.shp7 { fill: #e1565e } 
		.shp8 { fill: #55d160 } 
		.shp9 { fill: #e09633 } 
		.shp10 { fill: #61a3d4 } 
		.shp11 { fill: #876cff } 
		.shp12 { fill: #a7e156 } 
		.txt13 { font-size: 14px;fill: #ffffff;font-weight: 700;font-family: "Roboto-Bold", "Roboto" } 
		.shp14 { fill: #007e92 } 
		.shp15 { fill: #e156d8 } 
		.shp16 { fill: #38b4e1 } 
		.shp17 { fill: #e19499 } 
		.shp18 { fill: #56dae1 } 
		.shp19 { fill: #ffa64d } 
		.txt20 { font-size: 8px;fill: #ffffff;font-weight: 700;font-family: "Roboto-Bold", "Roboto" } 
	</style>
	<g id="Background">
		<path id="&lt;Path&gt;" class="shp0" d="M1500 1500L0 1500L0 0L1500 0L1500 1500Z" />
	</g>
	<g id="Object">
		<g id="&lt;Clip Group&gt;">
			<path id="&lt;Path&gt;" class="shp1" d="M1500 1500L0 1500L0 0L1500 0L1500 1500Z" />
			<g id="&lt;Group&gt;">
				<path id="&lt;Path&gt;" class="shp2" d="M1447.54 0L1303.64 0L1281.13 79.34L1414.08 113.59L1447.54 0Z" />
				<path id="&lt;Path&gt;" class="shp2" d="M1478.82 0L1443.15 121.08L1500 135.73L1500 0L1478.82 0Z" />
				<path id="&lt;Path&gt;" class="shp2" d="M1367.25 378.7L1500 422.88L1500 229.91L1417.36 208.62L1367.25 378.7Z" />
				<path id="&lt;Path&gt;" class="shp2" d="M1388.29 201.13L1256.23 167.11L1207.3 339.61L1338.38 370.56L1388.29 201.13Z" />
				<path id="&lt;Path&gt;" class="shp2" d="M1066.1 1400.96L1036.92 1500L1272.41 1500L1203.8 1445.97L1066.1 1400.96Z" />
				<path id="&lt;Path&gt;" class="shp2" d="M671.93 1500L862.92 1500L682.88 1439.68C678.98 1461.19 675.3 1481.44 671.93 1500Z" />
				<path id="&lt;Path&gt;" class="shp2" d="M1365.44 993.18L1500 1029.07L1500 822.75L1401.05 795.88L1365.44 993.18Z" />
				<path id="&lt;Path&gt;" class="shp2" d="M1255.96 756.49L1199.29 948.86L1342.17 986.97L1377.8 789.57L1255.96 756.49Z" />
				<path id="&lt;Path&gt;" class="shp2" d="M348.56 1500L641.44 1500C645.27 1478.93 649.54 1455.42 654.14 1430.05L435.52 1356.8L348.56 1500Z" />
				<path id="&lt;Path&gt;" class="shp2" d="M74.93 1114.31L0 1249.74L0 1488.7L153.63 1257.85L74.93 1114.31Z" />
				<path id="&lt;Path&gt;" class="shp2" d="M174.75 1269.43L21.31 1500L320.48 1500L412.19 1348.99L174.75 1269.43Z" />
				<path id="&lt;Path&gt;" class="shp2" d="M0 176.79L96.02 245.6L186.43 278.01L208.21 223.56C209.88 202.23 211.45 182.26 212.93 163.54L0 142.34L0 176.79Z" />
				<path id="&lt;Path&gt;" class="shp2" d="M226.06 0L0 0L0 118.22L214.82 139.6C219.52 80.28 223.19 34.83 226.06 0Z" />
				<path id="&lt;Path&gt;" class="shp2" d="M0 627.37L180.72 675.94L227.21 555.52L0 504.35L0 627.37Z" />
				<path id="&lt;Path&gt;" class="shp2" d="M281.75 414.25L163.04 381.48L0 338.42L0 479.75L235.95 532.89L281.75 414.25Z" />
				<path id="&lt;Path&gt;" class="shp2" d="M238.92 215.73L345.66 244.11L374.23 126.82L246.96 114.15C244.17 149.1 241.4 184.09 238.92 215.73Z" />
				<path id="&lt;Path&gt;" class="shp2" d="M405.11 0L256.18 0C253.91 27.68 251.41 58.62 248.87 90.22L379.96 103.27L405.11 0Z" />
				<path id="&lt;Path&gt;" class="shp2" d="M136.99 820.81L0 784.28L0 960.11L89.6 980.97L136.99 820.81Z" />
				<path id="&lt;Path&gt;" class="shp2" d="M0 1187.77L61.07 1077.39L82.78 1004.02L0 984.75L0 1187.77Z" />
				<path id="&lt;Path&gt;" class="shp2" d="M80.25 271.21L0 213.7L0 307.39L157.99 349.12L175.28 305.88L81.95 272.43L80.25 271.21Z" />
			</g>
			<path id="&lt;Compound Path&gt;" fill-rule="evenodd" class="shp3" d="M1255.96 756.49L1199.29 948.86L1842.85 1120.52L1835.12 1149.51L1190.81 977.65L1074.58 1372.17L1218.18 1419.11L1406.27 1567.23L1387.7 1590.8L1203.8 1445.97L1066.1 1400.96L1029.78 1524.26L1246.26 1596.79L1236.73 1625.24L1021.29 1553.06L997.37 1634.25L968.6 1625.77L992.83 1543.52L682.88 1439.68C664.99 1538.25 651.83 1610.45 651 1614.23L636.35 1611.01L621.69 1607.82C622.61 1603.5 635.69 1531.69 654.14 1430.05L156.65 1263.37L74.93 1114.31L-203.89 1618.28L-230.14 1603.75L61.07 1077.39L136.99 820.81L-46.27 771.94L-23.58 648.2L-373.12 423.63L-356.91 398.39L-0.87 627.13L180.72 675.94L281.75 414.25L163.04 381.48L-104.05 310.94L-410.98 118.73L-395.05 93.3L-91.98 283.09L157.99 349.12L175.28 305.88L81.95 272.43L80.25 271.21L-399.75 -72.79L-382.28 -97.18L96.02 245.6L186.43 278.01L208.21 223.56C234.19 -108.03 236.05 -113.62 236.75 -115.73L265.22 -106.24C265.32 -106.54 265.52 -107.1 265.66 -107.93C263.78 -96.55 249 87.24 238.92 215.73L345.66 244.11L436.41 -128.54L465.56 -121.44L374.66 251.82L818.54 369.82L824.09 297.77L749 -122.35L778.53 -127.63L852.07 283.81L1177.77 333.77L1300.55 -99.08L1329.42 -90.89L1207.3 339.61L1338.38 370.56L1485.61 -129.23L1514.39 -120.75L1367.25 378.7L1652.33 473.58L1717.34 268.42L1718.55 266.63C1730.04 249.6 1830.94 100.08 1836.99 92.01L1860.99 110.01C1856.79 115.61 1789.57 215 1744.63 281.61L1576.44 812.42L1878.9 894.54L1871.03 923.49L1255.96 756.49ZM265.66 -107.95C265.66 -107.94 265.66 -107.94 265.66 -107.93C265.66 -107.94 265.66 -107.94 265.66 -107.95ZM1358.77 407.5L1264.44 727.7L1547.46 804.55L1643.27 502.18L1358.77 407.5ZM1199.11 368.49L1109.17 685.55L1235.48 719.84L1329.9 399.32L1199.11 368.49ZM1169.52 362.85L852.91 314.29L830.17 609.79L1080.22 677.68L1169.52 362.85ZM899.46 1314.93L1008.9 929.13L786.11 869.7C776.47 923.02 745.85 1092.3 716.19 1256.01L745.94 1264.76L899.46 1314.93ZM1017.08 900.26L1072.03 706.55L826.22 639.8L821.07 669.35L791.38 840.06L1017.08 900.26ZM816.2 400.24L365.57 280.44L321.67 394.15L806.38 527.94L816.2 400.24ZM292.61 386.13L336.4 272.69L231.98 244.93L187.14 357.02L292.61 386.13ZM209.86 683.78L762.28 832.27L799.36 619.15L804.03 558.41L310.81 422.27L209.86 683.78ZM200.34 712.28L174.47 799.75L470.34 878.65L493.56 791.1L200.34 712.28ZM145.5 792.03L171.4 704.5L4.81 659.72L-11.76 750.09L145.5 792.03ZM165.96 828.53L93.63 1073.06L687.24 1247.51C711.35 1114.44 737.5 969.94 757.03 861.92L522.53 798.89L491.63 915.38L165.96 828.53ZM659.56 1400.22C666.49 1361.99 674.03 1320.41 681.86 1277.19L105.6 1107.84L177.32 1238.66L659.56 1400.22ZM1037.57 1391.64L736.83 1293.34L710.81 1285.69C703.01 1328.74 695.37 1370.88 688.3 1409.85L1001.31 1514.73L1037.57 1391.64ZM1161.81 969.91L1037.89 936.86L928 1324.26L1046.05 1362.85L1161.81 969.91ZM1227 748.62L1100.99 714.41L1046.08 908L1170.29 941.13L1227 748.62Z" />
			<path id="&lt;Path&gt;" class="shp4" d="M770.75 617.3L746.31 757.82C742.68 778.67 721.93 791.91 701.49 786.41L286.51 674.87C265.86 669.32 254.57 647.09 262.27 627.14L316.37 487.02C323.03 469.76 341.69 460.36 359.53 465.29L745.22 571.75C761.83 576.33 772.86 592.03 771.54 609.21L771.18 613.89C771.09 615.03 770.95 616.17 770.75 617.3Z" />
			<path id="&lt;Path&gt;" class="shp4" d="M1598.26 549.86L1537.65 741.17C1532.56 757.21 1515.73 766.4 1499.48 761.99L1330.97 716.23C1313.98 711.62 1304.1 693.94 1309.07 677.05L1368.58 475.05C1373.6 458 1391.76 448.51 1408.62 454.13L1578.24 510.57C1594.53 516 1603.45 533.49 1598.26 549.86Z" />
			<g id="&lt;Group&gt;">
				<path id="&lt;Path&gt;" class="shp5" d="M1871.22 325.54L295.24 -80.46L302.73 -109.51L1878.71 296.49L1871.22 325.54Z" />
			</g>
			<g id="&lt;Group&gt;">
				<path id="&lt;Path&gt;" class="shp5" d="M1930.19 277.53L354.21 -128.47L361.7 -157.52L1937.68 248.48L1930.19 277.53Z" />
			</g>
			<g id="&lt;Group&gt;">
				<path id="&lt;Path&gt;" class="shp2" d="M1169.2 473.93L1137.34 586.27L1264.79 620.36L1297.83 508.19L1169.2 473.93Z" />
				<path id="&lt;Path&gt;" class="shp2" d="M1329.9 399.32L1199.11 368.49L1172.48 462.39L1301.22 496.68L1329.9 399.32Z" />
				<path id="&lt;Path&gt;" class="shp2" d="M1109.17 685.55L1235.48 719.84L1261.4 631.87L1134.06 597.82L1109.17 685.55Z" />
				<path id="&lt;Path&gt;" class="shp2" d="M1073.49 436.02L1095.45 351.49L979.25 333.67L960.48 405.92L1073.49 436.02Z" />
				<path id="&lt;Path&gt;" class="shp2" d="M837.2 518.42L830.17 609.79L890.85 626.27L913.56 538.84L837.2 518.42Z" />
				<path id="&lt;Path&gt;" class="shp2" d="M967.33 331.84L852.91 314.29L848.16 376.01L948.89 402.84L967.33 331.84Z" />
				<path id="&lt;Path&gt;" class="shp2" d="M945.87 414.45L847.22 388.18L838.13 506.25L916.58 527.23L945.87 414.45Z" />
				<path id="&lt;Path&gt;" class="shp2" d="M925.15 541.94L902.43 629.41L1015.3 660.06L1038.13 572.16L925.15 541.94Z" />
				<path id="&lt;Path&gt;" class="shp2" d="M1082.07 450.73L1052.74 563.64L1108.35 578.52L1140.21 466.21L1082.07 450.73Z" />
				<path id="&lt;Path&gt;" class="shp2" d="M1143.48 454.66L1169.52 362.85L1107.37 353.32L1085.08 439.11L1143.48 454.66Z" />
				<path id="&lt;Path&gt;" class="shp2" d="M1026.88 663.2L1080.22 677.68L1105.07 590.06L1049.72 575.26L1026.88 663.2Z" />
				<path id="&lt;Path&gt;" class="shp2" d="M928.17 530.33L1041.15 560.54L1070.47 447.64L957.47 417.54L928.17 530.33Z" />
				<path id="&lt;Path&gt;" class="shp2" d="M1008.9 929.13L786.11 869.7C783.09 886.41 778 914.51 771.54 950.26L979.76 1031.85L1008.9 929.13Z" />
				<path id="&lt;Path&gt;" class="shp2" d="M716.19 1256.01L745.94 1264.76L899.46 1314.93L936.14 1185.62L739.74 1125.98C732.09 1168.19 724.11 1212.29 716.19 1256.01Z" />
				<path id="&lt;Path&gt;" class="shp2" d="M976.47 1043.45L769.36 962.29C761.59 1005.23 752.09 1057.72 741.89 1114.09L939.42 1174.07L976.47 1043.45Z" />
				<path id="&lt;Path&gt;" class="shp2" d="M821.07 669.35L791.38 840.06L1017.08 900.26L1072.03 706.55L826.22 639.8L821.07 669.35Z" />
				<path id="&lt;Path&gt;" class="shp2" d="M806.38 527.94L816.2 400.24L735.78 378.86L690.11 495.85L806.38 527.94Z" />
				<path id="&lt;Path&gt;" class="shp2" d="M551.34 457.54L596.51 341.83L480.59 311.02L435.84 425.66L551.34 457.54Z" />
				<path id="&lt;Path&gt;" class="shp2" d="M321.67 394.15L424.2 422.45L468.92 307.91L365.57 280.44L321.67 394.15Z" />
				<path id="&lt;Path&gt;" class="shp2" d="M678.48 492.63L724.11 375.75L608.19 344.94L562.97 460.75L678.48 492.63Z" />
				<path id="&lt;Path&gt;" class="shp2" d="M336.4 272.69L231.98 244.93L187.14 357.02L292.61 386.13L336.4 272.69Z" />
				<path id="&lt;Path&gt;" class="shp2" d="M470.34 878.65L493.56 791.1L318.03 743.92L297.47 832.55L470.34 878.65Z" />
				<path id="&lt;Path&gt;" class="shp2" d="M200.34 712.28L174.47 799.75L285.87 829.46L306.43 740.8L200.34 712.28Z" />
				<path id="&lt;Path&gt;" class="shp2" d="M171.4 704.5L4.81 659.72L-11.76 750.09L145.5 792.03L171.4 704.5Z" />
				<path id="&lt;Path&gt;" class="shp2" d="M279.08 858.7L165.96 828.53L135.91 930.1L254.19 966.01L279.08 858.7Z" />
				<path id="&lt;Path&gt;" class="shp2" d="M411.1 1026.2L380.66 1157.41L510.76 1195.64L540.91 1065.62L411.1 1026.2Z" />
				<path id="&lt;Path&gt;" class="shp2" d="M262.98 981.23L232.23 1113.79L369.13 1154.02L399.59 1022.7L262.98 981.23Z" />
				<path id="&lt;Path&gt;" class="shp2" d="M402.31 1010.99L428.39 898.51L290.68 861.79L265.7 969.51L402.31 1010.99Z" />
				<path id="&lt;Path&gt;" class="shp2" d="M132.51 941.61L93.63 1073.06L220.7 1110.4L251.47 977.73L132.51 941.61Z" />
				<path id="&lt;Path&gt;" class="shp2" d="M543.63 1053.9L598.07 819.19L522.53 798.89L491.63 915.38L440 901.61L413.81 1014.48L543.63 1053.9Z" />
				<path id="&lt;Path&gt;" class="shp2" d="M712.99 1105.32C728.88 1017.55 744.35 932.05 757.03 861.92L609.67 822.31L555.14 1057.39L712.99 1105.32Z" />
				<path id="&lt;Path&gt;" class="shp2" d="M522.29 1199.03L687.24 1247.51C694.99 1204.72 702.95 1160.76 710.84 1117.21L552.42 1069.11L522.29 1199.03Z" />
				<path id="&lt;Path&gt;" class="shp2" d="M105.6 1107.84L177.32 1238.66L219.54 1252.8L249.71 1150.19L105.6 1107.84Z" />
				<path id="&lt;Path&gt;" class="shp2" d="M261.23 1153.58L230.93 1256.62L448.02 1329.35L475.51 1216.55L261.23 1153.58Z" />
				<path id="&lt;Path&gt;" class="shp2" d="M459.43 1333.18L659.56 1400.22C666.49 1361.99 674.03 1320.41 681.86 1277.19L487.04 1219.93L459.43 1333.18Z" />
				<path id="&lt;Path&gt;" class="shp2" d="M736.83 1293.34L710.81 1285.69C703.01 1328.74 695.37 1370.88 688.3 1409.85L839.02 1460.35L884.77 1341.69L736.83 1293.34Z" />
				<path id="&lt;Path&gt;" class="shp2" d="M850.41 1464.17L1001.31 1514.73L1037.57 1391.64L896.19 1345.43L850.41 1464.17Z" />
				<path id="&lt;Path&gt;" class="shp2" d="M1161.81 969.91L1037.89 936.86L1007.82 1042.85L1126.61 1089.4L1161.81 969.91Z" />
				<path id="&lt;Path&gt;" class="shp2" d="M968.13 1182.79L1088.35 1219.29L1123.21 1100.95L1004.53 1054.45L968.13 1182.79Z" />
				<path id="&lt;Path&gt;" class="shp2" d="M928 1324.26L1046.05 1362.85L1084.96 1230.8L964.85 1194.33L928 1324.26Z" />
				<path id="&lt;Path&gt;" class="shp2" d="M1227 748.62L1100.99 714.41L1046.08 908L1170.29 941.13L1227 748.62Z" />
				<path id="&lt;Path&gt;" class="shp2" d="M506.95 227.01L506.95 227.01" />
				<path id="&lt;Path&gt;" class="shp2" d="M514.94 567.27L514.94 567.27" />
				<path id="&lt;Path&gt;" class="shp2" d="M1114.38 302.46L1114.38 302.46" />
				<path id="&lt;Path&gt;" class="shp2" d="" />
				<path id="&lt;Path&gt;" class="shp2" d="M611.55 787.66L611.55 787.66" />
				<path id="&lt;Path&gt;" class="shp2" d="" />
				<path id="&lt;Path&gt;" class="shp2" d="M1264.44 1149.85L1264.44 1149.85" />
				<path id="&lt;Path&gt;" class="shp2" d="M259.84 1137.01L259.84 1137.01" />
				<path id="&lt;Path&gt;" class="shp2" d="M209.86 1307.01L209.86 1307.01" />
				<path id="&lt;Path&gt;" class="shp2" d="M484.99 1203.01L484.99 1203.01" />
				<path id="&lt;Path&gt;" class="shp2" d="M439.16 1391.01L439.16 1391.01" />
				<path id="&lt;Path&gt;" class="shp2" d="M893.78 1335.01L893.77 1335.02" />
			</g>
			<path id="&lt;Path&gt;" class="shp6" d="M443.63 238.48L720.19 312C745.35 318.69 770.41 300.91 772.41 274.94C772.68 271.43 772.51 267.89 771.89 264.42L734.4 54.7C733.03 47.04 726.37 41.47 718.59 41.47L488.04 41.47C480.63 41.47 474.18 46.53 472.43 53.73L432.15 219.15C430.08 227.64 435.18 236.23 443.63 238.48Z" />
			<path id="&lt;Path&gt;" class="shp4" d="M1167.09 1113.5L1126.9 1249.94C1108.49 1312.42 1143.1 1378.21 1205 1398.44C1218.44 1402.83 1231 1409.55 1242.1 1418.3L1286.57 1453.32C1307.81 1470.04 1334.05 1479.14 1361.08 1479.14L1362.89 1479.14C1429.4 1479.14 1483.32 1425.22 1483.32 1358.71L1483.32 1168.94C1483.32 1114.39 1446.65 1066.65 1393.93 1052.58L1313.65 1031.17C1250.56 1014.34 1185.55 1050.86 1167.09 1113.5Z" />
			<g id="&lt;Group&gt;">
				<path id="&lt;Path&gt;" class="shp7" d="M509.21 430.35L484.18 386.99C470.97 364.1 487.48 335.5 513.9 335.5L513.9 335.5C540.33 335.5 556.84 364.1 543.63 386.99L518.59 430.35C516.51 433.96 511.3 433.96 509.21 430.35Z" />
				<path id="&lt;Compound Path&gt;" fill-rule="evenodd" class="shp3" d="M535.34 367.08C535.34 370.31 532.71 372.94 529.48 372.94L527.64 372.94C526.15 376.45 523.37 379.27 519.89 380.8L528.81 380.8C528.81 382.22 527.67 383.36 526.25 383.36L501.44 383.36C500.02 383.36 498.88 382.22 498.88 380.8L507.81 380.8C502.55 378.48 498.88 373.23 498.88 367.12L498.88 360.34L528.81 360.34L528.81 361.23L529.48 361.23C532.71 361.23 535.34 363.86 535.34 367.08ZM533.29 367.08C533.29 364.99 531.58 363.28 529.48 363.28L528.81 363.28L528.81 367.12C528.81 368.42 528.63 369.68 528.31 370.89L529.48 370.89C531.58 370.89 533.29 369.18 533.29 367.08Z" />
			</g>
			<g id="&lt;Group&gt;">
				<path id="&lt;Path&gt;" class="shp7" d="M166.71 237.19L141.68 193.83C128.46 170.95 144.98 142.34 171.4 142.34C197.82 142.34 214.34 170.95 201.13 193.83L176.09 237.19C174.01 240.8 168.8 240.8 166.71 237.19Z" />
				<path id="&lt;Compound Path&gt;" fill-rule="evenodd" class="shp3" d="M192.84 173.93C192.84 177.15 190.21 179.78 186.98 179.78L185.14 179.78C183.65 183.29 180.87 186.11 177.38 187.65L186.31 187.65C186.31 189.06 185.17 190.2 183.75 190.2L158.94 190.2C157.52 190.2 156.38 189.06 156.38 187.65L165.3 187.65C160.05 185.32 156.38 180.07 156.38 173.96L156.38 167.18L186.31 167.18L186.31 168.07L186.98 168.07C190.21 168.07 192.84 170.7 192.84 173.93ZM190.79 173.93C190.79 171.83 189.08 170.12 186.98 170.12L186.31 170.12L186.31 173.96C186.31 175.26 186.13 176.52 185.81 177.73L186.98 177.73C189.08 177.73 190.79 176.02 190.79 173.93Z" />
			</g>
			<g id="&lt;Group&gt;">
				<path id="&lt;Path&gt;" class="shp7" d="M1325.22 958.55L1300.18 915.18C1286.97 892.3 1303.48 863.7 1329.9 863.7L1329.9 863.7C1356.33 863.7 1372.84 892.3 1359.63 915.18L1334.59 958.55C1332.51 962.16 1327.3 962.16 1325.22 958.55Z" />
				<path id="&lt;Compound Path&gt;" fill-rule="evenodd" class="shp3" d="M1351.34 895.28C1351.34 898.51 1348.71 901.13 1345.49 901.13L1343.64 901.13C1342.16 904.64 1339.37 907.46 1335.89 909L1344.81 909C1344.81 910.41 1343.67 911.56 1342.26 911.56L1317.44 911.56C1316.02 911.56 1314.88 910.41 1314.88 909L1323.81 909C1318.55 906.68 1314.88 901.43 1314.88 895.31L1314.88 888.53L1344.81 888.53L1344.81 889.43L1345.49 889.43C1348.71 889.43 1351.34 892.05 1351.34 895.28ZM1349.29 895.28C1349.29 893.18 1347.58 891.47 1345.49 891.47L1344.81 891.47L1344.81 895.31C1344.81 896.62 1344.63 897.88 1344.32 899.09L1345.49 899.09C1347.58 899.09 1349.29 897.38 1349.29 895.28Z" />
			</g>
			<g id="&lt;Group&gt;">
				<path id="&lt;Path&gt;" class="shp8" d="M875.14 468.95L850.11 425.59C836.9 402.7 853.41 374.1 879.83 374.1L879.83 374.1C906.26 374.1 922.77 402.7 909.56 425.59L884.52 468.95C882.44 472.56 877.23 472.56 875.14 468.95Z" />
				<path id="&lt;Path&gt;" class="shp3" d="M898.66 406.26L879.83 391.95L861.01 406.26L866.05 406.26L866.05 424.9L876.47 424.9L876.47 416.68C876.47 414.82 877.98 413.31 879.83 413.31C881.69 413.31 883.19 414.82 883.19 416.68L883.19 424.9L893.62 424.9L893.62 406.26L898.66 406.26Z" />
			</g>
			<g id="&lt;Group&gt;">
				<path id="&lt;Path&gt;" class="shp9" d="M454.75 1135.47L429.71 1092.1C416.5 1069.22 433.01 1040.62 459.43 1040.62C485.86 1040.62 502.37 1069.22 489.16 1092.1L464.12 1135.47C462.04 1139.08 456.83 1139.08 454.75 1135.47Z" />
				<g id="&lt;Group&gt;">
					<path id="&lt;Path&gt;" class="shp3" d="M460.88 1065.72L460.88 1058.72C460.88 1055.46 463.52 1052.82 466.78 1052.82C470.03 1052.82 472.67 1055.46 472.67 1058.72L472.67 1065.72C472.67 1068.98 470.03 1071.62 466.78 1071.62C463.52 1071.62 460.88 1068.98 460.88 1065.72Z" />
					<path id="&lt;Path&gt;" class="shp3" d="M464.37 1100.88L464.37 1070L469.18 1070L469.18 1100.88C469.18 1102.21 468.1 1103.28 466.78 1103.28C465.45 1103.28 464.37 1102.21 464.37 1100.88Z" />
					<path id="&lt;Path&gt;" class="shp3" d="M454.5 1055.23L454.5 1086.11L449.69 1086.11L449.69 1055.23C449.69 1053.9 450.76 1052.82 452.09 1052.82C453.42 1052.82 454.5 1053.9 454.5 1055.23Z" />
					<path id="&lt;Path&gt;" class="shp3" d="M448.13 1090.31L449.74 1090.31L449.74 1103.28L451.28 1103.28L451.28 1090.31L452.9 1090.31L452.9 1103.28L454.44 1103.28L454.44 1090.31L456.05 1090.31L456.05 1103.28L457.99 1103.28L457.99 1088.95C457.99 1086.49 455.99 1084.49 453.53 1084.49L450.66 1084.49C448.19 1084.49 446.19 1086.49 446.19 1088.95L446.19 1103.28L448.13 1103.28L448.13 1090.31Z" />
				</g>
			</g>
			<g id="&lt;Group&gt;">
				<path id="&lt;Path&gt;" class="shp9" d="M191.77 1419.1L166.74 1375.73C153.52 1352.85 170.04 1324.24 196.46 1324.24L196.46 1324.24C222.88 1324.24 239.4 1352.85 226.19 1375.73L201.15 1419.1C199.07 1422.7 193.86 1422.7 191.77 1419.1Z" />
				<g id="&lt;Group&gt;">
					<path id="&lt;Path&gt;" class="shp3" d="M197.9 1349.34L197.9 1342.34C197.9 1339.09 200.55 1336.45 203.8 1336.45C207.06 1336.45 209.7 1339.09 209.7 1342.34L209.7 1349.34C209.7 1352.6 207.06 1355.24 203.8 1355.24C200.55 1355.24 197.9 1352.6 197.9 1349.34Z" />
					<path id="&lt;Path&gt;" class="shp3" d="M201.4 1384.5L201.4 1353.62L206.21 1353.62L206.21 1384.5C206.21 1385.83 205.13 1386.91 203.8 1386.91C202.47 1386.91 201.4 1385.83 201.4 1384.5Z" />
					<path id="&lt;Path&gt;" class="shp3" d="M191.52 1338.85L191.52 1369.73L186.71 1369.73L186.71 1338.85C186.71 1337.52 187.79 1336.45 189.12 1336.45C190.45 1336.45 191.52 1337.52 191.52 1338.85Z" />
					<path id="&lt;Path&gt;" class="shp3" d="M185.16 1373.93L186.77 1373.93L186.77 1386.91L188.31 1386.91L188.31 1373.93L189.93 1373.93L189.93 1386.91L191.47 1386.91L191.47 1373.93L193.08 1373.93L193.08 1386.91L195.02 1386.91L195.02 1372.58C195.02 1370.11 193.02 1368.11 190.55 1368.11L187.68 1368.11C185.22 1368.11 183.22 1370.11 183.22 1372.58L183.22 1386.91L185.16 1386.91L185.16 1373.93Z" />
				</g>
			</g>
			<g id="&lt;Group&gt;">
				<path id="&lt;Path&gt;" class="shp10" d="M205.17 913.74L180.13 870.38C166.92 847.49 183.44 818.89 209.86 818.89C236.28 818.89 252.8 847.49 239.59 870.38L214.55 913.74C212.46 917.35 207.25 917.35 205.17 913.74Z" />
				<path id="&lt;Compound Path&gt;" fill-rule="evenodd" class="shp3" d="M226.84 845.27L226.84 858.9C226.84 861.82 224.48 864.18 221.57 864.18L198.15 864.18C195.24 864.18 192.88 861.82 192.88 858.9L192.88 845.27C192.88 842.36 195.24 840 198.15 840L201.8 840L201.8 838.73C201.8 835.46 204.46 832.8 207.73 832.8L211.99 832.8C215.26 832.8 217.92 835.46 217.92 838.73L217.92 840L221.57 840C224.48 840 226.84 842.36 226.84 845.27ZM204.1 840L215.62 840L215.62 838.73C215.62 836.73 213.99 835.1 211.99 835.1L207.73 835.1C205.73 835.1 204.1 836.73 204.1 838.73L204.1 840Z" />
			</g>
			<g id="&lt;Group&gt;">
				<path id="&lt;Path&gt;" class="shp11" d="M685.77 990.59L660.73 947.23C647.52 924.34 664.03 895.74 690.46 895.74L690.46 895.74C716.88 895.74 733.39 924.34 720.18 947.23L695.14 990.59C693.06 994.2 687.85 994.2 685.77 990.59Z" />
				<g id="&lt;Group&gt;">
					<g id="&lt;Group&gt;">
						<path id="&lt;Path&gt;" class="shp3" d="M705.07 939.82L675.84 939.82L680.29 915.85L700.62 915.85L705.07 939.82Z" />
					</g>
					<g id="&lt;Group&gt;">
						<path id="&lt;Compound Path&gt;" fill-rule="evenodd" class="shp3" d="M696.59 919.55L684.32 919.55L684.32 914.58C684.32 911.2 687.07 908.44 690.46 908.44C693.84 908.44 696.59 911.2 696.59 914.58L696.59 919.55ZM685.88 917.99L695.03 917.99L695.03 914.58C695.03 912.06 692.98 910 690.46 910C687.93 910 685.88 912.06 685.88 914.58L685.88 917.99Z" />
					</g>
				</g>
			</g>
			<g id="&lt;Group&gt;">
				<path id="&lt;Path&gt;" class="shp12" d="M1141.26 841.54L1116.22 798.17C1103.01 775.29 1119.52 746.69 1145.95 746.69C1172.37 746.69 1188.88 775.29 1175.67 798.17L1150.63 841.54C1148.55 845.15 1143.34 845.15 1141.26 841.54Z" />
				<text id="H
" style="transform: matrix(3,0,0,3,1131.089,796.816)" >
					<tspan x="0" y="0" class="txt13">H</tspan>
				</text>
			</g>
			<g id="&lt;Group&gt;">
				<path id="&lt;Path&gt;" class="shp14" d="M656.76 464.86L631.73 421.49C618.51 398.61 635.03 370.01 661.45 370.01L661.45 370.01C687.87 370.01 704.39 398.61 691.18 421.49L666.14 464.86C664.06 468.47 658.85 468.47 656.76 464.86Z" />
				<text id="P
" style="transform: matrix(3,0,0,3,648.314,420.137)" >
					<tspan x="0" y="0" class="txt13">P</tspan>
				</text>
			</g>
			<g id="&lt;Group&gt;">
				<path id="&lt;Path&gt;" class="shp15" d="M466.96 1416.34L441.92 1372.97C428.71 1350.09 445.22 1321.48 471.64 1321.48L471.65 1321.48C498.07 1321.48 514.58 1350.09 501.37 1372.97L476.33 1416.34C474.25 1419.95 469.04 1419.95 466.96 1416.34Z" />
				<path id="&lt;Compound Path&gt;" fill-rule="evenodd" class="shp3" d="M490 1356.36C489.82 1356.82 489.61 1357.25 489.39 1357.68C489 1358.45 488.66 1359.11 488.64 1359.87C488.62 1360.4 488.76 1360.96 488.91 1361.54C489.01 1361.93 489.1 1362.31 489.17 1362.71C489.65 1365.73 488.15 1368.54 486.56 1369.88C485.3 1370.93 483.86 1371.38 482.52 1371.65L482.52 1373.95L460.77 1373.95L460.77 1337.67L482.52 1337.67L482.52 1343.87C484.34 1344.35 486.33 1345.09 487.95 1346.81C489.93 1348.92 491.24 1353.06 490 1356.36ZM478.12 1341.15L465.17 1341.15L465.17 1354.1L478.12 1354.1L478.12 1341.15ZM486.54 1348.13C485.39 1346.91 483.95 1346.29 482.52 1345.87L482.52 1369.67C483.51 1369.44 484.48 1369.1 485.32 1368.4C486.55 1367.37 487.61 1365.19 487.26 1363.01C487.2 1362.67 487.12 1362.34 487.04 1362.01C486.86 1361.33 486.68 1360.61 486.71 1359.81C486.75 1358.62 487.24 1357.66 487.67 1356.81C487.85 1356.44 488.04 1356.07 488.19 1355.68C489.15 1353.12 488.08 1349.77 486.54 1348.13Z" />
			</g>
			<g id="&lt;Group&gt;">
				<path id="&lt;Path&gt;" class="shp15" d="M1310.19 314.9L1285.15 271.54C1271.94 248.66 1288.46 220.05 1314.88 220.05C1341.3 220.05 1357.82 248.66 1344.6 271.54L1319.57 314.9C1317.48 318.51 1312.27 318.51 1310.19 314.9Z" />
				<path id="&lt;Compound Path&gt;" fill-rule="evenodd" class="shp3" d="M1333.23 254.93C1333.06 255.39 1332.84 255.82 1332.62 256.25C1332.23 257.02 1331.9 257.68 1331.87 258.44C1331.85 258.97 1331.99 259.52 1332.14 260.11C1332.24 260.49 1332.34 260.88 1332.4 261.28C1332.88 264.3 1331.39 267.11 1329.79 268.45C1328.53 269.5 1327.09 269.95 1325.75 270.22L1325.75 272.51L1304.01 272.51L1304.01 236.24L1325.75 236.24L1325.75 242.43C1327.57 242.91 1329.56 243.66 1331.18 245.38C1333.16 247.48 1334.47 251.63 1333.23 254.93ZM1321.36 239.72L1308.4 239.72L1308.4 252.67L1321.36 252.67L1321.36 239.72ZM1329.78 246.7C1328.63 245.48 1327.19 244.86 1325.75 244.44L1325.75 268.24C1326.75 268.01 1327.71 267.67 1328.55 266.97C1329.78 265.94 1330.84 263.76 1330.49 261.58C1330.44 261.24 1330.35 260.91 1330.27 260.58C1330.1 259.89 1329.92 259.18 1329.94 258.38C1329.98 257.18 1330.47 256.22 1330.9 255.38C1331.09 255.01 1331.28 254.64 1331.42 254.25C1332.39 251.69 1331.32 248.34 1329.78 246.7Z" />
			</g>
			<g id="&lt;Group&gt;">
				<path id="&lt;Path&gt;" class="shp16" d="M543.54 913.43L518.5 870.07C505.29 847.19 521.8 818.58 548.23 818.58C574.65 818.58 591.16 847.19 577.95 870.07L552.91 913.43C550.83 917.04 545.62 917.04 543.54 913.43Z" />
				<path id="&lt;Path&gt;" class="shp3" d="M569.12 838.63L562.55 838.63L562.65 838.14L532.15 838.14L535.73 854.58L557.02 854.58L555.17 862.52L535.26 862.52C534.73 862.52 534.3 862.95 534.3 863.49C534.3 864.02 534.73 864.45 535.26 864.45L535.64 864.45C535.42 864.78 535.26 865.15 535.26 865.58C535.26 866.73 536.2 867.67 537.35 867.67C538.51 867.67 539.45 866.73 539.45 865.58C539.45 865.15 539.29 864.78 539.07 864.45L551.24 864.45C551.02 864.78 550.86 865.15 550.86 865.58C550.86 866.73 551.8 867.67 552.95 867.67C554.11 867.67 555.05 866.73 555.05 865.58C555.05 865.15 554.89 864.78 554.67 864.45L555.94 864.45C556.39 864.45 556.78 864.14 556.88 863.7L559 854.58L559.07 854.58L562.13 840.56L569.12 840.56C569.66 840.56 570.09 840.12 570.09 839.59C570.09 839.06 569.66 838.63 569.12 838.63Z" />
			</g>
			<g id="&lt;Group&gt;">
				<path id="&lt;Path&gt;" class="shp17" d="M927.02 806.11L901.98 762.75C888.77 739.87 905.28 711.26 931.7 711.26L931.7 711.26C958.13 711.26 974.64 739.87 961.43 762.75L936.39 806.11C934.31 809.72 929.1 809.72 927.02 806.11Z" />
				<path id="&lt;Path&gt;" class="shp3" d="M933.88 750.39L947.39 730.5L916.02 730.5L929.53 750.39L929.53 763.79L923.5 763.79L923.5 766.14L939.91 766.14L939.91 763.79L933.88 763.79L933.88 750.39Z" />
			</g>
			<g id="&lt;Group&gt;">
				<path id="&lt;Path&gt;" class="shp17" d="M816 1240.41L790.97 1197.04C777.76 1174.16 794.27 1145.56 820.69 1145.56L820.69 1145.56C847.12 1145.56 863.63 1174.16 850.42 1197.04L825.38 1240.41C823.3 1244.02 818.09 1244.02 816 1240.41Z" />
				<path id="&lt;Path&gt;" class="shp3" d="M822.86 1184.68L836.38 1164.79L805 1164.79L818.52 1184.68L818.52 1198.08L812.49 1198.08L812.49 1200.44L828.9 1200.44L828.9 1198.08L822.86 1198.08L822.86 1184.68Z" />
			</g>
			<g id="&lt;Group&gt;">
				<path id="&lt;Path&gt;" class="shp18" d="M603.87 1199.65L578.83 1156.28C565.62 1133.4 582.13 1104.8 608.56 1104.8C634.98 1104.8 651.49 1133.4 638.28 1156.28L613.24 1199.65C611.16 1203.26 605.95 1203.26 603.87 1199.65Z" />
				<g id="&lt;Group&gt;">
					<path id="&lt;Path&gt;" class="shp3" d="M595.25 1147.61L588.67 1147.61L588.67 1128.74L595.25 1128.74L595.25 1147.61Z" />
					<path id="&lt;Path&gt;" class="shp3" d="M630.38 1147.61L623.81 1147.61L623.81 1128.74L630.38 1128.74L630.38 1147.61Z" />
					<path id="&lt;Path&gt;" class="shp3" d="M627.09 1142.75L593.53 1142.75L593.53 1138.17L627.09 1138.17L627.09 1142.75Z" />
					<path id="&lt;Path&gt;" class="shp3" d="M603.36 1134.74C603.36 1136.7 601.78 1138.28 599.82 1138.28C597.87 1138.28 596.28 1136.7 596.28 1134.74C596.28 1132.79 597.87 1131.2 599.82 1131.2C601.78 1131.2 603.36 1132.79 603.36 1134.74Z" />
					<path id="&lt;Path&gt;" class="shp3" d="M601.2 1133.74C604.37 1132.22 607.88 1130.66 611.27 1131.56C612.39 1131.86 613.43 1132.42 614.55 1132.73C616.54 1133.28 618.67 1133.03 620.67 1132.53C621.83 1132.23 623.04 1131.85 624.2 1132.15C625.35 1132.46 626.33 1133.79 625.77 1134.85C626.59 1136.09 626.13 1137.89 625.12 1138.98C624.1 1140.07 622.58 1140.56 621.1 1140.67C619.62 1140.77 618.13 1140.53 616.66 1140.37C613.2 1140 609.69 1140.09 606.25 1140.64C605.36 1140.78 604.44 1140.96 603.56 1140.72C602.28 1140.36 601.37 1139.16 601 1137.88C600.62 1136.59 601.12 1135.07 601.2 1133.74Z" />
				</g>
			</g>
			<g id="&lt;Group&gt;">
				<path id="&lt;Path&gt;" class="shp18" d="M927.02 973.91L901.98 930.54C888.77 907.66 905.28 879.05 931.7 879.05C958.13 879.05 974.64 907.66 961.43 930.54L936.39 973.91C934.31 977.52 929.1 977.52 927.02 973.91Z" />
				<g id="&lt;Group&gt;">
					<path id="&lt;Path&gt;" class="shp3" d="M918.39 921.87L911.82 921.87L911.82 902.99L918.39 902.99L918.39 921.87Z" />
					<path id="&lt;Path&gt;" class="shp3" d="M953.53 921.87L946.95 921.87L946.95 902.99L953.53 902.99L953.53 921.87Z" />
					<path id="&lt;Path&gt;" class="shp3" d="M950.24 917L916.68 917L916.68 912.43L950.24 912.43L950.24 917Z" />
					<path id="&lt;Path&gt;" class="shp3" d="M926.51 909C926.51 910.95 924.92 912.54 922.97 912.54C921.02 912.54 919.43 910.95 919.43 909C919.43 907.04 921.02 905.46 922.97 905.46C924.92 905.46 926.51 907.04 926.51 909Z" />
					<path id="&lt;Path&gt;" class="shp3" d="M924.35 907.99C927.51 906.48 931.02 904.92 934.42 905.82C935.54 906.12 936.58 906.68 937.7 906.99C939.69 907.54 941.82 907.29 943.82 906.78C944.98 906.49 946.19 906.11 947.34 906.41C948.5 906.71 949.48 908.05 948.92 909.1C949.73 910.35 949.28 912.15 948.26 913.24C947.25 914.33 945.73 914.82 944.25 914.92C942.76 915.03 941.28 914.78 939.8 914.63C936.35 914.26 932.84 914.35 929.4 914.9C928.51 915.04 927.58 915.21 926.71 914.97C925.43 914.62 924.52 913.41 924.14 912.13C923.77 910.85 924.27 909.32 924.35 907.99Z" />
				</g>
			</g>
			<g id="&lt;Group&gt;">
				<path id="&lt;Path&gt;" class="shp18" d="M166.72 1086.69L141.68 1043.32C128.47 1020.44 144.98 991.84 171.4 991.84C197.83 991.84 214.34 1020.44 201.13 1043.32L176.09 1086.69C174.01 1090.3 168.8 1090.3 166.72 1086.69Z" />
				<g id="&lt;Group&gt;">
					<path id="&lt;Path&gt;" class="shp3" d="M158.09 1034.65L151.52 1034.65L151.52 1015.78L158.09 1015.78L158.09 1034.65Z" />
					<path id="&lt;Path&gt;" class="shp3" d="M193.23 1034.65L186.65 1034.65L186.65 1015.78L193.23 1015.78L193.23 1034.65Z" />
					<path id="&lt;Path&gt;" class="shp3" d="M189.94 1029.79L156.38 1029.79L156.38 1025.21L189.94 1025.21L189.94 1029.79Z" />
					<path id="&lt;Path&gt;" class="shp3" d="M166.21 1021.78C166.21 1023.74 164.62 1025.32 162.67 1025.32C160.71 1025.32 159.13 1023.74 159.13 1021.78C159.13 1019.83 160.71 1018.24 162.67 1018.24C164.62 1018.24 166.21 1019.83 166.21 1021.78Z" />
					<path id="&lt;Path&gt;" class="shp3" d="M164.05 1020.78C167.21 1019.26 170.72 1017.71 174.12 1018.61C175.24 1018.9 176.28 1019.46 177.4 1019.77C179.39 1020.32 181.52 1020.07 183.51 1019.57C184.67 1019.27 185.89 1018.89 187.04 1019.19C188.2 1019.5 189.18 1020.83 188.62 1021.89C189.43 1023.13 188.98 1024.93 187.96 1026.02C186.95 1027.11 185.43 1027.6 183.95 1027.71C182.46 1027.81 180.98 1027.57 179.5 1027.41C176.04 1027.04 172.54 1027.13 169.1 1027.68C168.21 1027.82 167.28 1028 166.41 1027.76C165.12 1027.4 164.21 1026.2 163.84 1024.92C163.47 1023.64 163.97 1022.11 164.05 1020.78Z" />
				</g>
			</g>
			<g id="&lt;Group&gt;">
				<path id="&lt;Path&gt;" class="shp19" d="M1112.58 404.64L1087.55 361.27C1074.33 338.39 1090.85 309.78 1117.27 309.78L1117.27 309.78C1143.69 309.78 1160.21 338.39 1147 361.27L1121.96 404.64C1119.88 408.25 1114.67 408.25 1112.58 404.64Z" />
				<text id="ATM
" style="transform: matrix(3,0,0,3,1094.961,347.735)" >
					<tspan x="0" y="0" class="txt20">ATM</tspan>
				</text>
			</g>
			<g id="&lt;Group&gt;">
				<path id="&lt;Path&gt;" class="shp11" d="M390.82 371.61L365.79 328.25C352.58 305.36 369.09 276.76 395.51 276.76C421.94 276.76 438.45 305.36 425.24 328.25L400.2 371.61C398.12 375.22 392.91 375.22 390.82 371.61Z" />
				<g id="&lt;Group&gt;">
					<g id="&lt;Group&gt;">
						<path id="&lt;Path&gt;" class="shp3" d="M410.13 320.84L380.9 320.84L385.35 296.86L405.67 296.86L410.13 320.84Z" />
					</g>
					<g id="&lt;Group&gt;">
						<path id="&lt;Compound Path&gt;" fill-rule="evenodd" class="shp3" d="M401.65 300.56L389.38 300.56L389.38 295.6C389.38 292.21 392.13 289.46 395.51 289.46C398.9 289.46 401.65 292.21 401.65 295.6L401.65 300.56ZM390.94 299.01L400.09 299.01L400.09 295.6C400.09 293.07 398.04 291.02 395.51 291.02C392.99 291.02 390.94 293.07 390.94 295.6L390.94 299.01Z" />
					</g>
				</g>
			</g>
		</g>
	</g>
</svg>